# xmcd
#
# Track frame offsets:
#	151
#	24529
#	41745
#	60846
#	77021
#	92204
#	104999
#	120238
#	134295
#	148130
#	166037
#
# Disc length: 2464 seconds
#
# Revision: 1
# Processed by: cddbd v1.5.1PL2 Copyright (c) Steve Scherf et al.
# Submitted via: EasyCDDAExtractor 7.0.5.1
#
DISCID=8e099e0b
DTITLE=關正傑 - '85 關正傑
DYEAR=1985
DGENRE=
TTITLE0=話我知
TTITLE1=長夜裡
TTITLE2=雨中再見
TTITLE3=留在我身邊
TTITLE4=心中仍要講愛你
TTITLE5=大步上青雲
TTITLE6=褪色的愛
TTITLE7=柔情似水
TTITLE8=歸途未盡
TTITLE9=一生的計劃
TTITLE10=燃點的火光
EXTD=
EXTT0=
EXTT1=
EXTT2=
EXTT3=
EXTT4=
EXTT5=
EXTT6=
EXTT7=
EXTT8=
EXTT9=
EXTT10=
PLAYORDER=
